<svg width="1920" height="1081" viewBox="0 0 1920 1081" fill="none" xmlns="http://www.w3.org/2000/svg">
<g clip-path="url(#clip0_1247_198949)">
<rect width="1920" height="1080" transform="translate(0 0.296875)" fill="#FCF5F0"/>
<path d="M1618.12 906.871C1510.41 906.167 1432.34 874.03 1329.7 843.741C1188.48 802.065 1100.16 811.78 1001.34 861.175C936.159 893.752 869.654 943.323 789.237 962.723C668.67 991.779 573.461 946.816 456.446 880.34C335.937 811.868 156.408 814.363 13.6238 908.574C9.95511 910.98 4.70159 914.708 0.09375 917.995V1024.65C127.059 1022.16 1326.39 998.94 1469.17 1005.19C1742.82 1017.17 1884.49 982.094 1920.12 971.587V810.43C1916.07 813.952 1911.47 817.943 1908.32 820.526C1829.99 884.595 1745.94 907.722 1618.12 906.871Z" fill="url(#paint0_linear_1247_198949)" fill-opacity="0.7"/>
<path d="M1843.97 684.371C1706.06 659.072 1652.26 599.023 1512.41 599.023C1372.56 599.023 1314.54 651.881 1198.05 684.371C1122.91 705.326 1042.15 712.957 973.498 712.194C783.608 699.956 750.795 640.377 607.189 639.643C484.627 639.026 421.731 687.746 324.937 707.792C211.15 731.359 81.9254 731.036 26.9249 729.54C17.269 729.276 7.11414 728.982 0.0703125 728.777V918.021C4.67815 914.704 9.93167 911.006 13.6003 908.6C156.385 814.418 335.914 811.894 456.422 880.366C573.438 946.842 668.647 991.834 789.214 962.749C869.66 943.349 936.165 893.778 1001.32 861.2C1100.11 811.806 1188.45 802.091 1329.68 843.767C1432.31 874.055 1510.38 906.193 1618.1 906.897C1745.91 907.748 1829.97 884.621 1908.3 820.552C1911.44 817.998 1916.08 813.978 1920.1 810.456V698.165C1917.9 697.784 1915.7 697.402 1913.97 697.109C1894.07 693.616 1871.26 689.419 1843.94 684.4L1843.97 684.371Z" fill="url(#paint1_linear_1247_198949)" fill-opacity="0.7"/>
<path d="M633.145 331.571C613.804 345.482 607.025 356.107 595.138 356.107C573.772 356.107 567.785 375.331 576.472 380.848C592.262 390.856 624.458 385.72 679.84 385.72C741.562 385.72 757.322 384.84 773.934 381.553C795.447 377.297 788.051 349.709 766.685 346.422C745.318 343.134 736.748 349.533 702.85 327.697C678.754 312.171 652.78 317.454 633.145 331.571Z" fill="url(#paint2_linear_1247_198949)"/>
<path d="M633.145 331.571C613.804 345.482 607.025 356.107 595.138 356.107C573.772 356.107 567.785 375.331 576.472 380.848C592.262 390.856 624.458 385.72 679.84 385.72C741.562 385.72 757.322 384.84 773.934 381.553C795.447 377.297 788.051 349.709 766.685 346.422C745.318 343.134 736.748 349.533 702.85 327.697C678.754 312.171 652.78 317.454 633.145 331.571Z" fill="url(#paint3_linear_1247_198949)"/>
<path d="M1512.28 237.356C1528.07 247.364 1560.26 242.228 1615.64 242.228C1677.37 242.228 1693.13 241.348 1709.74 238.06C1731.25 233.805 1723.86 206.216 1702.49 202.929C1681.12 199.642 1672.55 206.04 1638.65 184.205C1614.56 168.679 1588.58 173.962 1568.95 188.079C1549.61 201.99 1542.83 212.615 1530.94 212.615C1509.58 212.615 1503.59 231.838 1512.28 237.356Z" fill="url(#paint4_linear_1247_198949)"/>
<path d="M1512.28 237.356C1528.07 247.364 1560.26 242.228 1615.64 242.228C1677.37 242.228 1693.13 241.348 1709.74 238.06C1731.25 233.805 1723.86 206.216 1702.49 202.929C1681.12 199.642 1672.55 206.04 1638.65 184.205C1614.56 168.679 1588.58 173.962 1568.95 188.079C1549.61 201.99 1542.83 212.615 1530.94 212.615C1509.58 212.615 1503.59 231.838 1512.28 237.356Z" fill="url(#paint5_linear_1247_198949)"/>
<path d="M211.525 225.056C225.906 237.412 315.011 235.211 415.62 235.211C527.734 235.211 572.287 235.357 602.487 229.194C641.551 221.211 634.096 188.017 595.296 181.854C556.497 175.69 532.049 136.568 468.801 140.677C405.553 144.786 388.296 163.334 348.058 179.799C307.82 196.264 271.926 194.21 250.325 194.21C211.525 194.21 197.144 212.729 211.525 225.085V225.056Z" fill="url(#paint6_linear_1247_198949)"/>
<path d="M211.525 225.056C225.906 237.412 315.011 235.211 415.62 235.211C527.734 235.211 572.287 235.357 602.487 229.194C641.551 221.211 634.096 188.017 595.296 181.854C556.497 175.69 532.049 136.568 468.801 140.677C405.553 144.786 388.296 163.334 348.058 179.799C307.82 196.264 271.926 194.21 250.325 194.21C211.525 194.21 197.144 212.729 211.525 225.085V225.056Z" fill="url(#paint7_linear_1247_198949)"/>
</g>
<defs>
<linearGradient id="paint0_linear_1247_198949" x1="977.053" y1="1009.13" x2="971.642" y2="809.443" gradientUnits="userSpaceOnUse">
<stop stop-color="#FFF4EE"/>
<stop offset="0.22" stop-color="#FCEBEF"/>
<stop offset="0.57" stop-color="#F7D3F4"/>
<stop offset="1" stop-color="#EEAEFC"/>
</linearGradient>
<linearGradient id="paint1_linear_1247_198949" x1="960.085" y1="872.882" x2="944.668" y2="543.552" gradientUnits="userSpaceOnUse">
<stop stop-color="#FFF4EE"/>
<stop offset="0.22" stop-color="#FCEBEF"/>
<stop offset="0.57" stop-color="#F7D3F4"/>
<stop offset="1" stop-color="#EEAEFC"/>
</linearGradient>
<linearGradient id="paint2_linear_1247_198949" x1="680.985" y1="421.79" x2="678.079" y2="299.756" gradientUnits="userSpaceOnUse">
<stop stop-color="#210340"/>
<stop offset="0.23" stop-color="#29074C"/>
<stop offset="0.65" stop-color="#3E126D"/>
<stop offset="1" stop-color="#541D8F"/>
</linearGradient>
<linearGradient id="paint3_linear_1247_198949" x1="707.731" y1="469.911" x2="631.731" y2="335.627" gradientUnits="userSpaceOnUse">
<stop stop-color="#FCF5F0"/>
<stop offset="1" stop-color="white"/>
</linearGradient>
<linearGradient id="paint4_linear_1247_198949" x1="1616.79" y1="278.298" x2="1613.88" y2="156.264" gradientUnits="userSpaceOnUse">
<stop stop-color="#210340"/>
<stop offset="0.23" stop-color="#29074C"/>
<stop offset="0.65" stop-color="#3E126D"/>
<stop offset="1" stop-color="#541D8F"/>
</linearGradient>
<linearGradient id="paint5_linear_1247_198949" x1="1643.54" y1="326.419" x2="1567.54" y2="192.135" gradientUnits="userSpaceOnUse">
<stop stop-color="#FCF5F0"/>
<stop offset="1" stop-color="white"/>
</linearGradient>
<linearGradient id="paint6_linear_1247_198949" x1="419.657" y1="283.357" x2="416.845" y2="114.775" gradientUnits="userSpaceOnUse">
<stop stop-color="#210340"/>
<stop offset="0.23" stop-color="#29074C"/>
<stop offset="0.65" stop-color="#3E126D"/>
<stop offset="1" stop-color="#541D8F"/>
</linearGradient>
<linearGradient id="paint7_linear_1247_198949" x1="472.382" y1="349.813" x2="388.488" y2="138.224" gradientUnits="userSpaceOnUse">
<stop stop-color="#FCF5F0"/>
<stop offset="1" stop-color="white"/>
</linearGradient>
<clipPath id="clip0_1247_198949">
<rect width="1920" height="1080" fill="white" transform="translate(0 0.296875)"/>
</clipPath>
</defs>
</svg>