<svg width="1920" height="1081" viewBox="0 0 1920 1081" fill="none" xmlns="http://www.w3.org/2000/svg">
<g clip-path="url(#clip0_1252_199760)">
<rect width="1920" height="1080" transform="translate(0 0.046875)" fill="#FCF5F0"/>
<path d="M1990.57 505.351C1990.65 505.242 1990.71 505.165 1990.74 505.11C1990.93 504.813 1961.28 517.612 1945.79 493.808C1938.73 483.001 1938.67 475.939 1936.65 467.59C1936.26 465.92 1935.67 464.31 1934.98 462.717C1932.22 464.368 1928.45 466.424 1922.93 468.502C1872.74 487.378 1837.19 451.325 1806.57 412.918C1782.92 383.245 1741.02 399.591 1741.02 399.591C1741.02 399.591 1763.09 406.388 1760.36 433.807C1757.2 465.528 1760.86 503.407 1792.43 536.552C1793.91 538.101 1797.9 541.88 1797.9 541.88C1797.9 541.88 1796.22 542.38 1793.23 542.187C1789.39 541.945 1787.43 541.357 1787.43 541.357C1787.43 541.357 1795.59 551.582 1813.54 562.139C1840.26 577.859 1871.81 584.263 1905.47 577.778C1938.25 571.456 1956.02 556.645 1987 528.456C1985.92 527.276 1985.14 525.373 1984.95 522.187C1984.46 513.16 1989.4 506.938 1990.55 505.35L1990.57 505.351ZM1892.91 542.592C1893.55 557.564 1870.67 563.409 1840.8 548.892C1807.11 526.317 1796.54 506.923 1796.52 507.012C1796.52 507.012 1801.14 509.869 1806.96 513.121C1811.58 515.696 1815.13 516.638 1816.3 516.907C1814.39 515.021 1807.07 505.389 1801.04 495.68C1792.92 482.619 1788.53 470.598 1788.53 470.598C1788.53 470.598 1798.69 482.463 1808.88 491.332C1825.88 506.133 1846.91 521.401 1862.95 524.915C1875.87 527.744 1892.27 527.621 1892.9 542.58L1892.91 542.592Z" fill="url(#paint0_linear_1252_199760)"/>
<path d="M1808.89 491.344C1798.7 482.464 1788.53 470.609 1788.53 470.609C1788.53 470.609 1792.93 482.63 1801.04 495.692C1807.07 505.4 1814.38 515.02 1816.3 516.918C1815.14 516.661 1811.59 515.707 1806.96 513.132C1801.14 509.881 1796.52 507.023 1796.52 507.023C1796.55 506.934 1807.11 526.328 1840.81 548.904C1870.67 563.421 1893.55 557.575 1892.91 542.603C1892.27 527.632 1875.88 527.767 1862.96 524.938C1846.92 521.424 1825.89 506.156 1808.9 491.355L1808.89 491.344Z" fill="url(#paint1_linear_1252_199760)"/>
<path d="M1807.03 500.492C1796.84 491.612 1786.67 479.758 1786.67 479.758C1786.67 479.758 1791.07 491.779 1799.18 504.84C1805.21 514.548 1812.52 524.168 1814.45 526.066C1813.28 525.809 1809.73 524.856 1805.11 522.281C1799.28 519.029 1794.66 516.171 1794.66 516.171C1794.69 516.082 1805.25 535.476 1838.95 558.052C1868.81 572.569 1891.69 566.723 1891.05 551.752C1890.41 536.78 1874.03 536.916 1861.1 534.087C1845.06 530.573 1824.03 515.305 1807.04 500.504L1807.03 500.492Z" fill="url(#paint2_linear_1252_199760)"/>
<path d="M1755.2 306.037C1754.11 299.237 1768.54 294.012 1772.62 282.652C1773.98 278.872 1772.91 272.457 1771.53 266.48C1770.48 261.914 1769.22 257.602 1768.69 254.917C1766.33 242.938 1762.94 234.844 1759.51 217.233C1756.02 199.352 1755.33 188.046 1761.26 183.07C1766.36 178.784 1778.39 182.618 1794.55 193.433C1807.13 201.844 1810.04 203.765 1816.76 206.803C1816.77 206.814 1816.78 206.817 1816.8 206.82C1817.18 206.992 1826.04 202.532 1829.99 200.458C1830.76 200.052 1831.02 198.992 1830.97 197.279C1830.88 192.725 1828.73 183.377 1828.71 168.267C1828.67 150.381 1830.97 140.684 1838.73 138.092C1845.28 135.905 1862.15 150.072 1874.48 162.004C1884.69 171.886 1885.52 172.955 1889.43 176.469C1892.98 179.662 1897.25 183.629 1901.71 187.299C1908.18 192.635 1915.07 197.355 1920.82 198.172C1933.15 199.927 1940.4 191.81 1945.84 195.999C1952.15 200.86 1944.76 202.73 1946.35 203.644C1946.61 203.8 1946.95 203.847 1947.31 203.876C1932.37 208.791 1921 219.18 1914.06 230.767C1906.36 243.603 1904.6 256.408 1900.14 257.891C1900 257.872 1899.87 257.833 1899.71 257.811C1895.1 257.313 1891.15 256.314 1887.51 255.329C1880.07 252.932 1874.28 250.425 1866.36 253.507C1862.71 254.93 1859.82 257.172 1857.4 259.972C1854.12 263.566 1851.88 268.197 1849.89 273.317C1847.59 278.995 1845.61 285.17 1843.13 291.054C1842.87 291.652 1842.69 292.25 1842.55 292.852C1838.85 295.295 1820.06 292.562 1804.76 294.222C1788.89 295.944 1775.18 301.59 1761.62 310.532C1762.53 307.885 1755.87 310.38 1755.17 306.023L1755.2 306.037Z" fill="url(#paint3_linear_1252_199760)"/>
<path d="M1790.49 233.38C1783.04 246.643 1775.32 260.121 1771.52 266.476C1770.47 261.91 1769.21 257.598 1768.68 254.913C1766.32 242.934 1762.93 234.841 1759.5 217.229C1756.02 199.359 1755.33 188.054 1761.26 183.077C1766.36 178.791 1778.39 182.625 1794.55 193.44C1807.13 201.851 1810.04 203.772 1816.76 206.81C1810.64 210.555 1798.39 219.296 1790.49 233.38Z" fill="url(#paint4_linear_1252_199760)"/>
<path d="M1830.98 197.294C1830.89 192.74 1828.73 183.392 1828.72 168.282C1828.68 150.396 1830.98 140.699 1838.74 138.107C1845.29 135.92 1862.15 150.087 1874.48 162.019C1884.7 171.901 1885.53 172.969 1889.44 176.484C1892.98 179.677 1897.26 183.644 1901.71 187.314C1893.61 187.479 1879.88 187.618 1866.4 187.64C1850.73 187.672 1837.46 193.711 1830.97 197.282L1830.98 197.294Z" fill="url(#paint5_linear_1252_199760)"/>
<path d="M1842.57 292.876C1839.48 305.326 1858.22 317.543 1881.3 307.085C1885.46 305.201 1889.08 303.009 1892.22 300.631C1913.57 284.651 1911.96 259.767 1900.15 257.911C1904.6 256.428 1906.37 243.635 1914.07 230.787C1921.01 219.212 1932.39 208.802 1947.31 203.896C1950.6 204.071 1957.58 199.562 1960.9 204.391C1963.93 208.788 1954.32 212.058 1955.59 214.133C1957.32 216.965 1964.17 214.498 1965.87 217.364C1970.1 224.589 1951.78 234.45 1948.08 254.389C1945.33 269.137 1955.35 284.234 1972.51 302.661C1984.91 315.97 2088.05 278.073 2007.99 338.662C1927.94 399.252 1962.59 402.944 1946.74 488.698C1908.2 450.332 1863.55 352.941 1802.29 333.79C1782.15 331.314 1776.35 337.965 1772.36 332.652C1770.47 330.15 1774.53 327.075 1772.84 324.44C1770.18 320.295 1758.4 327.123 1756.35 322.641C1753.9 317.329 1759.81 313.546 1761.21 311.41C1761.43 311.068 1761.56 310.795 1761.64 310.555C1775.2 301.613 1788.91 295.967 1804.78 294.245C1820.08 292.586 1838.88 295.318 1842.57 292.876Z" fill="url(#paint6_linear_1252_199760)"/>
<path opacity="0.6" d="M1842.57 292.876C1839.48 305.326 1858.22 317.543 1881.3 307.085C1885.46 305.201 1889.08 303.009 1892.22 300.631C1913.57 284.651 1911.96 259.767 1900.15 257.911C1904.6 256.428 1906.37 243.635 1914.07 230.787C1921.01 219.212 1932.39 208.802 1947.31 203.896C1950.6 204.071 1957.58 199.562 1960.9 204.391C1963.93 208.788 1954.32 212.058 1955.59 214.133C1957.32 216.965 1964.17 214.498 1965.87 217.364C1970.1 224.589 1951.78 234.45 1948.08 254.389C1945.33 269.137 1955.35 284.234 1972.51 302.661C1984.91 315.97 2007.99 338.662 2007.99 338.662C1927.62 399.491 1961.75 404.206 1947.25 490.502C1913.43 453.619 1862.09 352.062 1802.29 333.79C1782.15 331.314 1776.35 337.965 1772.36 332.652C1770.47 330.15 1774.53 327.075 1772.84 324.44C1770.18 320.295 1758.4 327.123 1756.35 322.641C1753.9 317.329 1759.81 313.546 1761.21 311.41C1761.43 311.068 1761.56 310.795 1761.64 310.555C1775.2 301.613 1788.91 295.967 1804.78 294.245C1820.08 292.586 1838.88 295.318 1842.57 292.876Z" fill="url(#paint7_linear_1252_199760)"/>
<path d="M1857.42 259.984C1854.27 263.657 1851.95 268.288 1849.91 273.329C1851.89 268.229 1854.13 263.587 1857.42 259.984Z" fill="#FFCF34"/>
<path d="M1842.57 292.862C1842.72 292.259 1842.9 291.662 1843.16 291.064C1845.63 285.188 1847.61 279.013 1849.92 273.326C1851.96 268.285 1854.28 263.654 1857.43 259.981C1859.84 257.171 1862.73 254.929 1866.39 253.517C1874.32 250.446 1880.08 252.951 1887.54 255.338C1891.16 256.322 1895.11 257.32 1899.74 257.821C1899.89 257.831 1900.02 257.87 1900.17 257.9C1911.99 259.757 1913.6 284.64 1892.25 300.621C1889.12 302.99 1885.5 305.182 1881.32 307.074C1858.24 317.521 1839.49 305.324 1842.59 292.865L1842.57 292.862ZM1875.5 271.402C1881.41 267.85 1880.53 261.701 1878.18 259.899C1876.28 258.441 1872.44 257.96 1867.63 260.84C1863.38 263.386 1862.5 266.891 1863.09 269.061C1863.91 272.108 1869.89 274.784 1875.49 271.411L1875.5 271.402Z" fill="#FFC635"/>
<path d="M1863.1 269.079C1862.52 266.908 1863.4 263.404 1867.65 260.858C1872.45 257.977 1876.3 258.459 1878.19 259.917C1880.53 261.716 1881.41 267.876 1875.52 271.419C1869.92 274.793 1863.94 272.117 1863.11 269.07L1863.1 269.079Z" fill="#00073A"/>
<path d="M1834.48 271.404C1828.94 274.505 1825.17 275.81 1819.99 267.46C1813.41 256.825 1814.95 250.911 1820.84 247.688C1827 244.312 1831.22 248.974 1836.57 257.7C1840.5 264.1 1837.37 269.785 1834.47 271.413L1834.48 271.404ZM1820.42 255.807C1818.94 256.677 1818.44 258.576 1819.31 260.053C1820.18 261.529 1822.08 262.033 1823.56 261.163C1825.03 260.292 1825.54 258.393 1824.67 256.917C1823.8 255.44 1821.9 254.936 1820.42 255.807Z" fill="url(#paint8_linear_1252_199760)"/>
<path d="M1823.58 261.161C1822.1 262.032 1820.19 261.536 1819.33 260.051C1818.47 258.566 1818.95 256.664 1820.44 255.805C1821.92 254.946 1823.83 255.43 1824.69 256.915C1825.56 258.392 1825.06 260.302 1823.58 261.161Z" fill="white"/>
<path d="M1888.7 239.696C1882.98 242.901 1879.14 243.967 1874.92 237.637C1868.16 227.52 1866.52 220.01 1874.62 216.049C1879.72 213.55 1885.08 217.728 1889.72 224.789C1895.44 233.486 1891.7 238.011 1888.7 239.696ZM1874.28 224.159C1872.84 225.004 1872.35 226.855 1873.19 228.298C1874.04 229.741 1875.89 230.228 1877.33 229.383C1878.78 228.538 1879.26 226.687 1878.42 225.244C1877.57 223.801 1875.72 223.314 1874.28 224.159Z" fill="url(#paint9_linear_1252_199760)"/>
<path d="M1877.35 229.382C1875.9 230.227 1874.05 229.74 1873.21 228.297C1872.36 226.854 1872.85 225.003 1874.29 224.158C1875.74 223.313 1877.59 223.8 1878.43 225.243C1879.28 226.686 1878.79 228.537 1877.35 229.382Z" fill="white"/>
</g>
<defs>
<linearGradient id="paint0_linear_1252_199760" x1="1715.3" y1="448.969" x2="2000.67" y2="574.002" gradientUnits="userSpaceOnUse">
<stop stop-color="#FFEB49"/>
<stop offset="0.45" stop-color="#FF6600"/>
<stop offset="0.54" stop-color="#FF6109"/>
<stop offset="0.69" stop-color="#FF5322"/>
<stop offset="0.82" stop-color="#FF453F"/>
<stop offset="1" stop-color="#FB2872"/>
</linearGradient>
<linearGradient id="paint1_linear_1252_199760" x1="1707.61" y1="469.137" x2="1969.77" y2="569.093" gradientUnits="userSpaceOnUse">
<stop stop-color="#FFE500"/>
<stop offset="0.45" stop-color="#FF6D00"/>
<stop offset="0.54" stop-color="#FF6709"/>
<stop offset="0.69" stop-color="#FF5622"/>
<stop offset="0.82" stop-color="#FF453F"/>
<stop offset="1" stop-color="#FB0372"/>
</linearGradient>
<linearGradient id="paint2_linear_1252_199760" x1="1771.89" y1="479.21" x2="1860.96" y2="549.339" gradientUnits="userSpaceOnUse">
<stop stop-color="#FFEB49"/>
<stop offset="0.09" stop-color="#FFE545" stop-opacity="0.96"/>
<stop offset="0.24" stop-color="#FFD63D" stop-opacity="0.84"/>
<stop offset="0.44" stop-color="#FFBD2F" stop-opacity="0.66"/>
<stop offset="0.67" stop-color="#FF9A1C" stop-opacity="0.4"/>
<stop offset="0.94" stop-color="#FF6F05" stop-opacity="0.07"/>
<stop offset="1" stop-color="#FF6600" stop-opacity="0"/>
</linearGradient>
<linearGradient id="paint3_linear_1252_199760" x1="1784.67" y1="157.57" x2="1947.26" y2="390.614" gradientUnits="userSpaceOnUse">
<stop stop-color="#FF6600"/>
<stop offset="0.11" stop-color="#FF6A02"/>
<stop offset="0.23" stop-color="#FF7709"/>
<stop offset="0.35" stop-color="#FF8C15"/>
<stop offset="0.47" stop-color="#FFAA25"/>
<stop offset="0.49" stop-color="#FFB029"/>
<stop offset="0.55" stop-color="#FFAC27"/>
<stop offset="0.62" stop-color="#FFA120"/>
<stop offset="0.68" stop-color="#FF8F16"/>
<stop offset="0.73" stop-color="#FF7508"/>
<stop offset="0.76" stop-color="#FF6600"/>
<stop offset="0.91" stop-color="#FB2872"/>
</linearGradient>
<linearGradient id="paint4_linear_1252_199760" x1="1791.91" y1="234.092" x2="1741.51" y2="180.31" gradientUnits="userSpaceOnUse">
<stop stop-color="#FF6600" stop-opacity="0"/>
<stop offset="0.03" stop-color="#FF6600" stop-opacity="0.17"/>
<stop offset="0.07" stop-color="#FF6600" stop-opacity="0.36"/>
<stop offset="0.11" stop-color="#FF6600" stop-opacity="0.53"/>
<stop offset="0.16" stop-color="#FF6600" stop-opacity="0.68"/>
<stop offset="0.2" stop-color="#FF6600" stop-opacity="0.8"/>
<stop offset="0.25" stop-color="#FF6600" stop-opacity="0.89"/>
<stop offset="0.3" stop-color="#FF6600" stop-opacity="0.95"/>
<stop offset="0.36" stop-color="#FF6600" stop-opacity="0.99"/>
<stop offset="0.43" stop-color="#FF6600"/>
<stop offset="0.72" stop-color="#FD4737"/>
<stop offset="1" stop-color="#FB2872"/>
</linearGradient>
<linearGradient id="paint5_linear_1252_199760" x1="1865.8" y1="190.292" x2="1843.43" y2="120.059" gradientUnits="userSpaceOnUse">
<stop stop-color="#FF6600" stop-opacity="0"/>
<stop offset="0.03" stop-color="#FF6600" stop-opacity="0.17"/>
<stop offset="0.07" stop-color="#FF6600" stop-opacity="0.36"/>
<stop offset="0.11" stop-color="#FF6600" stop-opacity="0.53"/>
<stop offset="0.16" stop-color="#FF6600" stop-opacity="0.68"/>
<stop offset="0.2" stop-color="#FF6600" stop-opacity="0.8"/>
<stop offset="0.25" stop-color="#FF6600" stop-opacity="0.89"/>
<stop offset="0.3" stop-color="#FF6600" stop-opacity="0.95"/>
<stop offset="0.36" stop-color="#FF6600" stop-opacity="0.99"/>
<stop offset="0.43" stop-color="#FF6600"/>
<stop offset="0.72" stop-color="#FD4737"/>
<stop offset="1" stop-color="#FB2872"/>
</linearGradient>
<linearGradient id="paint6_linear_1252_199760" x1="1808.51" y1="192.523" x2="2001.41" y2="465.856" gradientUnits="userSpaceOnUse">
<stop stop-color="#FF6600"/>
<stop offset="0.33" stop-color="#FFB029"/>
<stop offset="0.46" stop-color="#FF9218"/>
<stop offset="0.63" stop-color="#FF6600"/>
<stop offset="1" stop-color="#FB2872"/>
</linearGradient>
<linearGradient id="paint7_linear_1252_199760" x1="1854.83" y1="258.821" x2="2027.42" y2="473.384" gradientUnits="userSpaceOnUse">
<stop stop-color="#FFEB49"/>
<stop offset="0.36" stop-color="#FFB52B" stop-opacity="0.6"/>
<stop offset="0.67" stop-color="#FF8A14" stop-opacity="0.28"/>
<stop offset="0.89" stop-color="#FF7005" stop-opacity="0.08"/>
<stop offset="1" stop-color="#FF6600" stop-opacity="0"/>
</linearGradient>
<linearGradient id="paint8_linear_1252_199760" x1="1819.48" y1="238.716" x2="1831.56" y2="272.616" gradientUnits="userSpaceOnUse">
<stop offset="0.16" stop-color="#A030B9"/>
<stop offset="0.88" stop-color="#00073A"/>
</linearGradient>
<linearGradient id="paint9_linear_1252_199760" x1="1873.1" y1="209.079" x2="1884.7" y2="238.033" gradientUnits="userSpaceOnUse">
<stop offset="0.16" stop-color="#A030B9"/>
<stop offset="0.88" stop-color="#00073A"/>
</linearGradient>
<clipPath id="clip0_1252_199760">
<rect width="1920" height="1080" fill="white" transform="translate(0 0.046875)"/>
</clipPath>
</defs>
</svg>