<svg width="1920" height="1080" viewBox="0 0 1920 1080" fill="none" xmlns="http://www.w3.org/2000/svg">
<g clip-path="url(#clip0_1246_198783)">
<rect width="1920" height="1080" fill="#210340"/>
<g clip-path="url(#clip1_1246_198783)">
<path d="M1932.15 310.623C1932.15 310.623 1960.01 301.376 1932.9 297.032C1796.21 275.133 1742.88 223.156 1604.24 223.156C1465.61 223.156 1408.12 268.909 1292.66 297.032C1218.18 315.145 1137.73 330.235 990.68 327.339C802.462 316.746 762.078 258.925 619.748 258.29C498.271 257.757 435.9 299.928 339.998 317.279C227.207 337.679 99.1481 337.399 44.6279 336.104C27.6324 335.697 9.04536 335.215 9.04536 335.215L7.21094 591.747C7.21094 591.747 1324.71 569.01 1474.16 574.726C1791.95 586.87 1930.2 543.123 1930.2 543.123L1932.17 310.598L1932.15 310.623Z" fill="url(#paint0_linear_1246_198783)"/>
<path d="M1920.01 537.945C1920.01 537.945 1906.69 548.539 1900.11 553.366C1822.81 609.966 1739.85 630.392 1613.72 629.655C1507.42 629.02 1430.38 600.643 1329.1 573.892C1189.73 537.082 1100.04 552.451 999.283 589.948C926.568 617.003 857.381 648.276 778.006 665.399C659.035 691.082 582.846 664.967 467.35 606.232C348.432 545.744 171.253 547.955 30.3785 631.154C22.5068 635.803 7.21094 645.837 7.21094 645.837V969.183L1919.98 970.301V537.971L1920.01 537.945Z" fill="url(#paint1_linear_1246_198783)"/>
<path d="M1261.1 261.19C1239.46 271.885 1216.82 280.675 1196.78 287.28C1200.97 284.409 1207.68 275.721 1207.68 275.721C1207.68 275.721 1139.62 297.188 1085.63 274.629C1054.59 261.647 1025.96 243.712 994.661 231.391C979.24 225.319 962.854 220.695 946.189 220.035C927.492 219.298 909.327 226.92 891.392 231.187C861.085 238.402 804.56 216.834 805.729 179.261C846.045 190.947 864.159 174.307 897.489 149.589C963.82 100.406 1048.92 94.995 1098.67 134.778C1094.02 126.801 1083.12 112.753 1083.12 112.753C1102.96 118.748 1117.31 129.723 1133.85 141.663C1177.85 173.418 1233.97 153.882 1279.72 136.734C1326.49 119.205 1372.55 108.993 1423.31 114.429C1478.79 120.374 1522.87 144.305 1566.99 167.143C1563.59 164.984 1556.73 175.603 1533.92 173.57C1476.71 168.413 1388.05 176.416 1318.62 224.176C1301.09 236.217 1282.36 250.698 1261.05 261.241L1261.1 261.19Z" fill="url(#paint2_linear_1246_198783)"/>
<path opacity="0.5" d="M1061.16 120.783C1016.4 96.3186 978.444 105.769 938.711 128.76C927.584 135.213 903.222 153.732 903.222 153.732L933.554 143.85C933.554 143.85 900.935 161.303 890.57 183.43C943.945 151.395 963.227 154.393 1007.56 153.605C999.707 155.968 979.308 168.848 979.308 168.848C979.308 168.848 1093.78 144.384 1132.72 191.585" fill="url(#paint3_radial_1246_198783)"/>
<path d="M1160.04 275.849C1071.97 267.567 1002.89 218.054 1002.89 218.054C1002.89 218.054 1026.47 221.154 1042.67 215.717C1018.11 193.463 960.212 197.96 929.523 205.047C1034.27 139.123 1135.35 226.59 1141.7 227.073C1122.67 225.65 1104.48 222.5 1085.94 222.322C1124.7 281.184 1275.68 238.378 1275.68 238.378C1275.68 238.378 1203.53 279.939 1160.04 275.849Z" fill="url(#paint4_linear_1246_198783)"/>
<path opacity="0.35" d="M1262.69 214.578C1242.72 229.745 1222.22 242.218 1196.97 246.384C1179.77 249.23 1144.46 248.874 1144.46 248.874C1144.46 248.874 1199.66 227.331 1214.98 207.211" fill="url(#paint5_radial_1246_198783)"/>
<path d="M884.41 223.193C874.578 219.687 863.019 220.805 852.654 217.198C842.264 213.565 832.229 206.528 823.617 199.465C836.777 200.863 847.751 200.481 860.707 198.602" fill="url(#paint6_linear_1246_198783)"/>
<path d="M1673.74 160.215C1673.74 160.215 1671.28 159.047 1668.84 156.201C1666.4 153.356 1663.55 150.435 1661.72 148.91C1659.69 147.183 1656.85 145.506 1655.55 146.294C1654.79 146.751 1655.2 148.987 1655.42 150.638C1656.01 155.033 1659.79 161.663 1659.79 161.663L1673.74 160.241V160.215Z" fill="url(#paint7_linear_1246_198783)"/>
<path d="M1586.11 190.903C1586.11 190.903 1576.27 193.063 1568.27 195.451C1560.96 197.635 1553.23 200.354 1550.49 201.497C1545.82 203.402 1541.47 208.356 1535.45 210.312C1531.54 211.582 1527.42 207.95 1533.29 205.714C1538.42 203.758 1538.85 199.363 1544.95 195.883C1546.63 194.917 1548.58 194.866 1550.06 193.85C1558.85 187.753 1563.73 180.183 1564.61 180.411C1566.52 180.894 1586.13 190.929 1586.13 190.929L1586.11 190.903Z" fill="url(#paint8_linear_1246_198783)"/>
<path d="M1620.2 185.419C1620.2 185.419 1630.31 180.821 1646.67 192.024C1649.28 193.828 1665.59 200.712 1669.71 202.592C1678.65 206.936 1681.11 204.904 1682.74 206.606C1685.13 208.613 1680.99 212.195 1673.06 209.883C1670.52 209.146 1658.71 205.946 1653.93 204.091C1643.77 200.128 1636.56 196.775 1633.2 195.352C1631.4 194.59 1620.2 185.419 1620.2 185.419Z" fill="url(#paint9_linear_1246_198783)"/>
<path d="M1532.29 149.315C1539.99 152.542 1560.65 165.625 1567.56 164.151C1579.39 161.611 1589.5 165.396 1605.26 167.505C1615.37 168.622 1632.79 168.572 1637.34 166.26C1640.64 164.558 1646.16 160.874 1648.32 159.401C1649.03 158.893 1649.13 158.156 1648.75 156.606C1647.73 152.618 1646.59 147.359 1647.99 146.572C1650.25 145.251 1656.75 148.833 1662.77 154.345C1663.23 154.752 1663.99 155.361 1665.92 155.793C1669.86 156.708 1673.21 157.978 1675.35 159.883C1678.62 162.805 1680.12 164.812 1683.55 166.489C1685.23 167.301 1687.79 168.038 1688.56 168.622C1689.32 169.207 1689.11 169.918 1688.91 170.604C1688.51 171.95 1685.53 174.897 1679.21 175.456C1672.7 176.015 1664.32 177.616 1655.94 183.205C1652.81 185.288 1652.69 185.237 1653.32 185.897C1655.12 187.777 1661.73 191.613 1671.36 193.442C1684.57 195.958 1687.44 192.452 1689.14 194.662C1690.69 196.77 1687.67 198.93 1685.23 199.565C1682.79 200.2 1677.58 200.175 1671.48 199.87C1663.53 199.463 1659.75 200.81 1650.14 198.117C1646.18 197.177 1633.28 197.05 1631.12 197.152C1622.58 197.609 1607.31 195.195 1596.85 192.985C1583.56 190.165 1573.4 191.207 1568.52 192.503C1553.68 196.415 1547.21 192.02 1536.59 194.941C1531.48 196.339 1530.8 196.415 1525 196.872C1517.38 197.482 1517.51 192.807 1522.31 192.503C1526.04 192.274 1528.46 191.258 1531.96 189.632C1536.54 187.523 1537.55 185.491 1541.08 184.5C1544.39 183.56 1548.35 184.272 1553.23 181.553C1553.66 181.325 1557.75 179.191 1559.4 177.844C1559.78 177.539 1559.65 177.031 1559.25 176.752C1558.31 176.091 1552.77 174.923 1537.45 173.78C1521.09 172.535 1486.21 171.061 1486.21 171.061C1486.21 171.061 1531.3 148.985 1532.24 149.366L1532.29 149.315Z" fill="url(#paint10_linear_1246_198783)"/>
<path d="M1559.22 194.034C1562.4 192.459 1564.15 190.35 1564.15 190.35C1564.15 190.35 1560.47 190.172 1556.94 190.172C1555.82 190.172 1551.6 189.994 1551.6 189.994C1551.6 189.994 1555.87 187.632 1556.94 186.819C1557.8 186.184 1561.33 183.643 1561.33 183.643C1561.33 183.643 1555.49 184.837 1554.29 185.041C1552.92 185.295 1548.99 186.006 1548.99 186.006C1548.99 186.006 1550.59 183.77 1551.68 182.297C1547.54 184.101 1544.06 183.643 1541.11 184.482C1537.58 185.472 1536.56 187.505 1531.99 189.613C1528.48 191.239 1526.07 192.255 1522.34 192.484C1517.51 192.763 1517.41 197.438 1525 196.854C1530.8 196.396 1531.48 196.32 1536.59 194.923C1544.69 192.687 1550.38 194.72 1559.22 194.059V194.034Z" fill="url(#paint11_linear_1246_198783)"/>
<path d="M1672.17 165.583C1672.37 167.463 1673.36 167.286 1674.05 167.311C1675.34 167.336 1675.88 166.879 1675.73 165.66C1675.45 163.475 1674.1 162.789 1673.26 163.17C1672.68 163.449 1671.99 163.958 1672.17 165.609V165.583Z" fill="url(#paint12_linear_1246_198783)"/>
<path d="M1674.95 165.767C1675.21 165.727 1675.38 165.391 1675.32 165.016C1675.27 164.642 1675.01 164.371 1674.74 164.411C1674.48 164.452 1674.31 164.788 1674.37 165.162C1674.43 165.537 1674.69 165.808 1674.95 165.767Z" fill="white"/>
<path d="M1671.34 193.401C1666.16 192.411 1661.89 190.861 1658.74 189.337C1655.84 188.879 1653.33 188.473 1652.01 188.117C1652.13 188.193 1657.47 191.979 1659.78 192.385C1657.62 192.944 1653.5 191.318 1649.31 192.004C1654.47 194.214 1655.79 194.544 1660.72 195.688C1655.87 196.399 1652.77 195.738 1649.64 195.942L1657.7 199.625C1662.47 200.133 1665.98 199.575 1671.46 199.854C1677.56 200.159 1682.74 200.21 1685.21 199.549C1687.65 198.914 1690.67 196.729 1689.12 194.646C1687.44 192.436 1684.55 195.942 1671.34 193.427V193.401Z" fill="url(#paint13_linear_1246_198783)"/>
<path opacity="0.6" d="M1678.47 171.652C1678.47 171.652 1678.6 171.652 1678.65 171.652C1676.38 171.626 1673.31 171.014 1669.72 169.074C1667.01 167.62 1664.46 166.395 1661.6 165.783C1652.85 163.92 1648.56 165.272 1649.17 166.727C1649.58 167.671 1651.9 167.543 1651.37 168.181C1651.01 168.641 1647.39 168.079 1647.95 169.585C1648.51 171.116 1651.34 170.784 1651.19 171.397C1651.04 171.958 1648.64 171.269 1649 172.57C1649.3 173.693 1652.62 173.285 1655.17 174.484C1661.47 177.47 1652.62 181.195 1652.29 183.67C1652.13 184.972 1652.32 185.604 1652.52 186.115C1652.57 185.426 1653.32 184.949 1655.9 183.24C1664.32 177.626 1672.83 176.015 1679.36 175.454C1680.15 175.377 1680.89 175.275 1681.58 175.122C1679.51 173.336 1678.21 171.652 1678.49 171.626L1678.47 171.652Z" fill="url(#paint14_linear_1246_198783)"/>
<path d="M1681.42 175.159C1686.25 174.219 1688.56 171.805 1688.92 170.611C1689.12 169.925 1689.27 169.189 1688.56 168.63C1688.05 168.249 1686.71 167.791 1685.36 167.258C1685.36 167.791 1685.23 168.325 1684.88 168.807C1682.95 171.373 1680.46 171.475 1678.53 171.627C1678.48 171.627 1678.4 171.627 1678.35 171.627C1678.07 171.627 1679.37 173.329 1681.42 175.108V175.159Z" fill="#FFC635"/>
<path d="M1688.95 170.734C1688.95 170.734 1688.97 170.658 1689 170.632C1689.2 169.946 1689.35 169.21 1688.64 168.651C1688.44 168.498 1688.06 168.32 1687.62 168.117C1687.47 168.447 1687.42 168.905 1687.47 169.514C1687.57 170.327 1688.36 170.632 1688.97 170.708L1688.95 170.734Z" fill="#00073A"/>
<path d="M1648.29 159.379C1647.6 159.862 1646.56 160.548 1645.37 161.335C1647.42 160.218 1651.59 158.236 1656.52 157.652C1660.86 157.144 1665.26 156.585 1667.8 156.229C1667.19 156.051 1666.55 155.899 1665.89 155.746C1663.99 155.315 1663.2 154.705 1662.74 154.298C1656.7 148.786 1650.22 145.229 1647.96 146.525C1646.56 147.338 1647.7 152.596 1648.72 156.559C1649.1 158.109 1649 158.871 1648.29 159.354V159.379Z" fill="url(#paint15_linear_1246_198783)"/>
<path opacity="0.6" d="M1621.38 192.107C1617.16 190.812 1607.05 189.008 1598.87 189.008C1593.89 189.008 1588.25 190.151 1584.57 191.269C1588.25 191.472 1592.37 191.98 1596.84 192.92C1607.31 195.13 1622.58 197.544 1631.11 197.086C1631.34 197.086 1637.06 197.086 1637.28 197.086C1633.12 195.003 1623.82 192.818 1621.38 192.082V192.107Z" fill="url(#paint16_linear_1246_198783)"/>
<path opacity="0.5" d="M1509.43 172.258C1467.03 137.53 1422.39 159.428 1389.7 167.481C1399.88 157.574 1411.85 149.521 1424.86 143.805C1386.42 146.345 1295.5 167.329 1260.69 216.588C1276.19 211.507 1290.65 201.218 1306.32 196.773C1296.72 212.625 1232.67 279.032 1111.16 265.237C1111.16 265.237 1132.3 276.999 1154.91 284.621C1184.71 282.969 1207.67 275.729 1207.67 275.729C1207.67 275.729 1200.97 284.417 1196.78 287.288C1216.82 280.683 1239.46 271.893 1261.1 261.198C1282.41 250.655 1301.14 236.2 1318.67 224.133C1378.82 182.749 1453.39 171.241 1509.45 172.258H1509.43Z" fill="url(#paint17_linear_1246_198783)"/>
<path opacity="0.5" d="M1423.33 114.395C1372.57 108.959 1326.51 119.171 1279.74 136.7C1233.99 153.848 1177.85 173.384 1133.87 141.629C1117.33 129.689 1102.98 118.714 1083.14 112.719C1083.14 112.719 1090.25 121.89 1095.44 129.638C1135.5 173.257 1171.12 173.333 1171.12 173.333C1171.12 173.333 1162.02 176.839 1148.61 177.906C1192.96 193.784 1248.45 175.137 1276.14 168.253C1312.29 159.285 1381.01 129.74 1381.01 129.74L1360.58 145.897C1360.58 145.897 1424.45 119.629 1508.94 138.428C1482.67 126.945 1454.86 117.749 1423.33 114.37V114.395Z" fill="url(#paint18_linear_1246_198783)"/>
</g>
</g>
<defs>
<linearGradient id="paint0_linear_1246_198783" x1="975.977" y1="450.855" x2="975.977" y2="105.433" gradientUnits="userSpaceOnUse">
<stop offset="0.14" stop-color="#210340"/>
<stop offset="0.34" stop-color="#29074C"/>
<stop offset="0.7" stop-color="#3E126D"/>
<stop offset="1" stop-color="#541D8F"/>
</linearGradient>
<linearGradient id="paint1_linear_1246_198783" x1="963.61" y1="736.505" x2="963.61" y2="296.3" gradientUnits="userSpaceOnUse">
<stop stop-color="#210340"/>
<stop offset="0.23" stop-color="#29074C"/>
<stop offset="0.65" stop-color="#3E126D"/>
<stop offset="1" stop-color="#541D8F"/>
</linearGradient>
<linearGradient id="paint2_linear_1246_198783" x1="787.361" y1="197.832" x2="1629.18" y2="181.28" gradientUnits="userSpaceOnUse">
<stop stop-color="#FFEB49"/>
<stop offset="0.15" stop-color="#FFB42B"/>
<stop offset="0.33" stop-color="#FF7C0C"/>
<stop offset="0.42" stop-color="#FF6600"/>
<stop offset="0.49" stop-color="#FE6009"/>
<stop offset="0.61" stop-color="#FD5222"/>
<stop offset="0.876429" stop-color="#FC3C4D"/>
<stop offset="1" stop-color="#FB2872" stop-opacity="0"/>
</linearGradient>
<radialGradient id="paint3_radial_1246_198783" cx="0" cy="0" r="1" gradientUnits="userSpaceOnUse" gradientTransform="translate(780.241 219.632) rotate(2.09) scale(293.079 293.079)">
<stop stop-color="#FFF300"/>
<stop offset="1" stop-color="#FFF300" stop-opacity="0"/>
</radialGradient>
<linearGradient id="paint4_linear_1246_198783" x1="1099.4" y1="0.923899" x2="1103.37" y2="272.369" gradientUnits="userSpaceOnUse">
<stop stop-color="#FFEB49" stop-opacity="0.8"/>
<stop offset="0.88" stop-color="#FFEB49" stop-opacity="0"/>
</linearGradient>
<radialGradient id="paint5_radial_1246_198783" cx="0" cy="0" r="1" gradientUnits="userSpaceOnUse" gradientTransform="translate(1163.67 218.567) scale(75.8064)">
<stop stop-color="#FFBA00"/>
<stop offset="0.16" stop-color="#FFAE0A" stop-opacity="0.86"/>
<stop offset="0.51" stop-color="#FF8F25" stop-opacity="0.49"/>
<stop offset="0.96" stop-color="#FF6749" stop-opacity="0"/>
</radialGradient>
<linearGradient id="paint6_linear_1246_198783" x1="823.601" y1="199.592" x2="886.367" y2="215.521" gradientUnits="userSpaceOnUse">
<stop stop-color="#FFEB49" stop-opacity="0.8"/>
<stop offset="0.7" stop-color="#FFEB49" stop-opacity="0"/>
</linearGradient>
<linearGradient id="paint7_linear_1246_198783" x1="1668.18" y1="162.375" x2="1655.11" y2="142.993" gradientUnits="userSpaceOnUse">
<stop offset="0.0180643" stop-color="#FF6600"/>
<stop offset="0.144259" stop-color="#FE6403"/>
<stop offset="0.30679" stop-color="#FE5F0D"/>
<stop offset="0.65" stop-color="#FE5E0E"/>
<stop offset="0.75" stop-color="#FD5420"/>
<stop offset="0.85" stop-color="#FC463A"/>
<stop offset="0.94" stop-color="#FB345B"/>
<stop offset="1" stop-color="#FB2872"/>
</linearGradient>
<linearGradient id="paint8_linear_1246_198783" x1="1579.25" y1="183.409" x2="1515.2" y2="219.839" gradientUnits="userSpaceOnUse">
<stop offset="0.24" stop-color="#BE0449"/>
<stop offset="0.45" stop-color="#D20F56"/>
<stop offset="0.8" stop-color="#EF216A"/>
<stop offset="1" stop-color="#FB2872"/>
</linearGradient>
<linearGradient id="paint9_linear_1246_198783" x1="1650.1" y1="197.054" x2="1704.56" y2="223.805" gradientUnits="userSpaceOnUse">
<stop offset="0.01" stop-color="#BE0449"/>
<stop offset="0.28" stop-color="#D20F56"/>
<stop offset="0.74" stop-color="#EF216A"/>
<stop offset="1" stop-color="#FB2872"/>
</linearGradient>
<linearGradient id="paint10_linear_1246_198783" x1="1522.21" y1="127.402" x2="1706.64" y2="196.534" gradientUnits="userSpaceOnUse">
<stop stop-color="#FF2F78" stop-opacity="0"/>
<stop offset="0.0915723" stop-color="#FC3C4D" stop-opacity="0.8"/>
<stop offset="0.239518" stop-color="#FE6009"/>
<stop offset="0.539572" stop-color="#FF6600"/>
<stop offset="0.747022" stop-color="#FE8B32"/>
<stop offset="0.871016" stop-color="#FE7331"/>
<stop offset="0.955731" stop-color="#FFB42B"/>
<stop offset="1" stop-color="#FFEB49"/>
</linearGradient>
<linearGradient id="paint11_linear_1246_198783" x1="1599.65" y1="165.33" x2="1509.35" y2="198.683" gradientUnits="userSpaceOnUse">
<stop offset="0.543684" stop-color="#DA1F61" stop-opacity="0.3"/>
<stop offset="0.693533" stop-color="#D81F60" stop-opacity="0.99"/>
<stop offset="0.88" stop-color="#D81F60"/>
</linearGradient>
<linearGradient id="paint12_linear_1246_198783" x1="1675.91" y1="162.731" x2="1673.04" y2="166.924" gradientUnits="userSpaceOnUse">
<stop offset="0.16" stop-color="#A030B9"/>
<stop offset="0.88" stop-color="#00073A"/>
</linearGradient>
<linearGradient id="paint13_linear_1246_198783" x1="1642.2" y1="184.332" x2="1691.15" y2="204.122" gradientUnits="userSpaceOnUse">
<stop offset="0.14" stop-color="#FB2872" stop-opacity="0"/>
<stop offset="0.29" stop-color="#EF256C" stop-opacity="0.32"/>
<stop offset="0.46" stop-color="#E32165" stop-opacity="0.68"/>
<stop offset="0.59" stop-color="#DB1F61" stop-opacity="0.91"/>
<stop offset="0.65" stop-color="#D81F60"/>
</linearGradient>
<linearGradient id="paint14_linear_1246_198783" x1="1665.1" y1="170.019" x2="1658.28" y2="210.693" gradientUnits="userSpaceOnUse">
<stop stop-color="#FFEB49"/>
<stop offset="0.05" stop-color="#FED84C" stop-opacity="0.9"/>
<stop offset="0.17" stop-color="#FDAA56" stop-opacity="0.67"/>
<stop offset="0.29" stop-color="#FC825E" stop-opacity="0.46"/>
<stop offset="0.41" stop-color="#FC6265" stop-opacity="0.3"/>
<stop offset="0.52" stop-color="#FB486B" stop-opacity="0.17"/>
<stop offset="0.63" stop-color="#FB366E" stop-opacity="0.08"/>
<stop offset="0.73" stop-color="#FB2B71" stop-opacity="0.02"/>
<stop offset="0.82" stop-color="#FB2872" stop-opacity="0"/>
</linearGradient>
<linearGradient id="paint15_linear_1246_198783" x1="1656.58" y1="157.833" x2="1645.37" y2="139.073" gradientUnits="userSpaceOnUse">
<stop stop-color="#FF6600" stop-opacity="0"/>
<stop offset="0.663462" stop-color="#FC453B"/>
<stop offset="0.85" stop-color="#FB3559"/>
<stop offset="0.94" stop-color="#FB2B6B"/>
<stop offset="1" stop-color="#FB2872"/>
</linearGradient>
<linearGradient id="paint16_linear_1246_198783" x1="1612.09" y1="189.906" x2="1610.93" y2="199.393" gradientUnits="userSpaceOnUse">
<stop stop-color="#FFEB49"/>
<stop offset="0.37" stop-color="#FFEB49" stop-opacity="0.59"/>
<stop offset="0.68" stop-color="#FFEB49" stop-opacity="0.27"/>
<stop offset="0.89" stop-color="#FFEB49" stop-opacity="0.08"/>
<stop offset="1" stop-color="#FFEB49" stop-opacity="0"/>
</linearGradient>
<linearGradient id="paint17_linear_1246_198783" x1="1565.52" y1="117.13" x2="1115.38" y2="281.14" gradientUnits="userSpaceOnUse">
<stop offset="0.09" stop-color="#BE0449" stop-opacity="0"/>
<stop offset="0.71" stop-color="#FB2872" stop-opacity="0.9"/>
<stop offset="0.87" stop-color="#FB2872" stop-opacity="0.07"/>
</linearGradient>
<linearGradient id="paint18_linear_1246_198783" x1="1530.79" y1="119.857" x2="1046.36" y2="155.195" gradientUnits="userSpaceOnUse">
<stop offset="0.05" stop-color="#BE0449" stop-opacity="0"/>
<stop offset="0.59" stop-color="#FB2872" stop-opacity="0.9"/>
<stop offset="0.87" stop-color="#FB2872" stop-opacity="0.07"/>
</linearGradient>
<clipPath id="clip0_1246_198783">
<rect width="1920" height="1080" fill="white"/>
</clipPath>
<clipPath id="clip1_1246_198783">
<rect width="1912.79" height="863.898" fill="white" transform="translate(7.21094 106.367)"/>
</clipPath>
</defs>
</svg>